<svg id="white" xmlns="http://www.w3.org/2000/svg" viewBox="0 0 570.03 570.03"><defs><style>.cls-1{fill:#f8983e;}.cls-2{font-size:242.09px;font-family:HouschkaRounded-ExtraBold, Houschka Rounded;font-weight:800;letter-spacing:-0.07em;}.cls-2,.cls-3,.cls-7,.cls-8{fill:#fff;}.cls-3,.cls-7{font-size:41.15px;font-family:Quicksand-Regular, Quicksand;}.cls-3{letter-spacing:-0.03em;}.cls-4{letter-spacing:-0.05em;}.cls-5,.cls-7{letter-spacing:-0.03em;}.cls-6{letter-spacing:-0.04em;}</style></defs><title>icon</title><rect class="cls-1" width="570.03" height="570.03"/><text class="cls-2" transform="translate(30.12 337.68)">melu</text><text class="cls-3" transform="translate(173.89 385.83)">mana<tspan class="cls-4" x="105.93" y="0">g</tspan><tspan class="cls-5" x="129.39" y="0">ed li</tspan><tspan class="cls-6" x="200.38" y="0">v</tspan><tspan class="cls-5" x="220.71" y="0">e chat</tspan></text><text class="cls-7" transform="translate(501.82 351.1)">®</text><polygon class="cls-8" points="388.68 209.64 402.51 177.91 430.27 199.5 388.68 209.64"/><path class="cls-8" d="M646.79,129H564.51a29.14,29.14,0,0,0-29,29.05v27.55a29.14,29.14,0,0,0,29,29h82.28a29.13,29.13,0,0,0,29.05-29V158.06A29.13,29.13,0,0,0,646.79,129Zm-79.35,57.14a15.22,15.22,0,1,1,15.21-15.21A15.21,15.21,0,0,1,567.44,186.15Zm38.73,0a15.22,15.22,0,1,1,15.22-15.21A15.21,15.21,0,0,1,606.17,186.15Zm38.74,0a15.22,15.22,0,1,1,15.21-15.21A15.22,15.22,0,0,1,644.91,186.15Z" transform="translate(-135.93 -13.24)"/></svg>